<svg xmlns="http://www.w3.org/2000/svg" xmlns:xlink="http://www.w3.org/1999/xlink" width="2980" height="821" viewBox="0 0 2980 821">
  <defs>
    <clipPath id="clip-아트보드_15">
      <rect width="2980" height="821"/>
    </clipPath>
  </defs>
  <g id="아트보드_15" data-name="아트보드 – 15" clip-path="url(#clip-아트보드_15)">
    <path id="패스_165" data-name="패스 165" d="M132.44,5.16c66.22,0,113.09-36.12,113.09-93.74,0-51.6-30.53-82.56-86.43-97.61l-30.53-8.17c-33.54-9.46-48.59-22.36-48.59-44.29,0-23.65,17.2-42.14,51.6-42.14,35.26,0,52.03,16.77,58.48,39.56h43.86v-30.96c-10.32-33.97-45.15-55.47-99.76-55.47-65.36,0-109.65,34.83-109.65,92.45,0,48.59,29.24,78.69,87.29,93.31l25.8,6.45c36.12,9.89,52.46,23.22,52.46,48.16,0,28.38-23.65,45.58-56.76,45.58-36.12,0-58.91-17.63-67.94-42.14H21.93v30.96C35.26-21.5,73.1,5.16,132.44,5.16ZM285.95,107.5h52.03V-31.82C353.89-9.03,378.83,5.16,411.51,5.16c61.49,0,98.9-50.74,98.9-113.52,0-62.35-36.55-112.66-98.9-112.66-32.68,0-58.48,14.62-73.96,37.84l-3.87-32.68H285.95ZM398.18-40.42c-36.98,0-60.2-30.53-60.2-67.94s23.22-67.08,60.2-67.08c39.99,0,59.77,30.1,59.77,67.08C457.95-70.95,438.17-40.42,398.18-40.42ZM606.73,5.16c34.83,0,55.04-18.49,65.79-34.83L677.25,0h44.72V-132.44c0-58.48-31.82-88.58-92.88-88.58-62.35,0-82.13,38.7-82.13,38.7v28.38h36.98s11.18-23.22,43.86-23.22c29.24,0,41.71,14.62,41.71,43.43v11.61a203.177,203.177,0,0,0-45.15-5.16c-62.78,0-89.87,27.09-89.87,65.36C534.49-24.94,558.57,5.16,606.73,5.16Zm12.9-41.28c-21.5,0-33.54-8.6-33.54-28.38,0-14.62,9.03-28.38,39.99-28.38,25.37,0,43.43,5.16,43.43,5.16V-77.4C669.51-59.34,651.88-36.12,619.63-36.12ZM771.42,0h52.03V-123.41c0-30.53,13.33-53.32,41.28-53.32,30.1,0,33.54,24.08,33.97,24.08h37.41v-29.24c-3.87-21.93-21.5-39.13-53.75-39.13-29.67,0-49.45,14.62-60.2,33.54l-3.01-28.38H771.42ZM961.05,0h52.03V-99.76L1104.67,0h43.43V-30.1l-79.12-83.42,70.52-73.96v-28.38h-39.56l-86.86,92.88V-322.5H961.05Zm219.73,0h52.03V-322.5h-52.03Zm103.63,0h52.03V-215.86h-52.03Zm-1.72-260.58h55.47v-52.89h-55.47ZM1388.04,0h52.03V-124.7c0-24.51,12.04-51.17,49.02-51.17,30.96,0,43,21.07,43,51.17V0h52.46V-131.15c0-49.02-21.5-89.87-79.98-89.87-34.83,0-55.47,18.49-65.79,33.97l-3.01-28.81h-47.73Zm286.38-141.9,33.97-55.47,33.97,55.47,39.56-29.24-42.14-49.45,63.21-15.05-15.05-46.87L1726.88-258l5.16-64.5h-49.45l4.73,64.07-58.91-24.08-15.05,46.87,63.21,15.05-41.71,49.45Z" transform="translate(1037.999 566)" stroke="#000" stroke-width="0.2"/>
    <path id="패스_161" data-name="패스 161" d="M-2516.563-10948.464a351.054,351.054,0,0,1-42.3-2.56,345.841,345.841,0,0,1-40.784-7.48,344.15,344.15,0,0,1-75.81-28.521,347.036,347.036,0,0,1-66.135-44.6,348.366,348.366,0,0,1-54.062-58.291c80.577-48.038,149.339-86.327,204.378-113.806,32.741-16.347,60.927-29,83.772-37.605a311.146,311.146,0,0,1,32.643-10.546c9.8-2.478,18.117-3.733,24.713-3.733,1.445,0,2.832.061,4.125.18a69.334,69.334,0,0,1,21.189,5.89,140.416,140.416,0,0,1,23.027,13.183,264.228,264.228,0,0,1,24.357,19.3c8.011,7.083,16.482,15.242,25.18,24.251,29.519,30.578,62.767,71.979,98.819,123.051a348.649,348.649,0,0,1-53.073,50.27,346.59,346.59,0,0,1-62.785,38.214,344.124,344.124,0,0,1-70.633,24.295,346.284,346.284,0,0,1-37.677,6.346A351.394,351.394,0,0,1-2516.563-10948.464Zm288.044-154.24c-17.416-50-31.158-93.229-40.843-128.5-5.73-20.868-10.089-39.159-12.956-54.362-3.148-16.7-4.573-30.079-4.237-39.781.313-9.009,2.391-19.655,6.177-31.643a294.382,294.382,0,0,1,14.845-36.831c10.96-23.1,26.212-49.777,45.332-79.3a344.252,344.252,0,0,1,36.633,84.374,346.645,346.645,0,0,1,13,94.29,344.425,344.425,0,0,1-57.955,191.76Zm-591.09-24.656h0a344.163,344.163,0,0,1-31.742-79.4,347.169,347.169,0,0,1-11.212-87.7,346.454,346.454,0,0,1,13.735-96.836,344.317,344.317,0,0,1,38.62-86.245,347.671,347.671,0,0,1,59.624-71.771,346.826,346.826,0,0,1,76.75-53.421c17.118,16.43,32.632,32.581,46.112,48.006,15.813,18.095,29.083,35.487,39.443,51.7a253.153,253.153,0,0,1,14.653,25.981,162.264,162.264,0,0,1,9.9,25.405,102.535,102.535,0,0,1,4.128,24.329,70.92,70.92,0,0,1-2.675,22.754c-1.871,6.354-5.43,13.935-10.579,22.532a295.227,295.227,0,0,1-19.352,27.865c-14.73,19.1-34.854,41.972-59.812,67.982-42.052,43.823-98.439,97.261-167.6,158.826Zm430.455-356.351h0a70.932,70.932,0,0,1-8.288-.457,105.245,105.245,0,0,1-19.3-4.669c-7.29-2.368-15.835-5.627-25.4-9.687-17.537-7.444-39.109-17.838-64.115-30.892-40.336-21.055-89.688-49.024-146.686-83.132a344.336,344.336,0,0,1,65.725-20.7,346.891,346.891,0,0,1,34.8-5.386,351.405,351.405,0,0,1,35.855-1.836,351.194,351.194,0,0,1,37.993,2.063,346.4,346.4,0,0,1,36.8,6.042,344.163,344.163,0,0,1,69.141,23.16,346.384,346.384,0,0,1,61.763,36.488,348.677,348.677,0,0,1,52.656,48.087c-26.486,12.232-50.338,21.874-70.893,28.66a305.073,305.073,0,0,1-32.367,8.937A137.509,137.509,0,0,1-2389.154-11483.711Z" transform="translate(2985.563 11705.463)" fill="#ff0062"/>
  </g>
</svg>
