<svg xmlns="http://www.w3.org/2000/svg" xmlns:xlink="http://www.w3.org/1999/xlink" width="2980" height="821" viewBox="0 0 2980 821">
  <defs>
    <clipPath id="clip-아트보드_15">
      <rect width="2980" height="821"/>
    </clipPath>
  </defs>
  <g id="아트보드_15" data-name="아트보드 – 15" clip-path="url(#clip-아트보드_15)">
    <text id="Sparklin_" data-name="Sparklin*" transform="translate(1037.999 566)" stroke="#000" stroke-width="0.2" font-size="430" font-family="Navigo-Medium, Navigo" font-weight="500" letter-spacing="-0.02em"><tspan x="0" y="0">Sparklin*</tspan></text>
    <path id="패스_161" data-name="패스 161" d="M-2516.563-10948.464a351.054,351.054,0,0,1-42.3-2.56,345.841,345.841,0,0,1-40.784-7.48,344.15,344.15,0,0,1-75.81-28.521,347.036,347.036,0,0,1-66.135-44.6,348.366,348.366,0,0,1-54.062-58.291c80.577-48.038,149.339-86.327,204.378-113.806,32.741-16.347,60.927-29,83.772-37.605a311.146,311.146,0,0,1,32.643-10.546c9.8-2.478,18.117-3.733,24.713-3.733,1.445,0,2.832.061,4.125.18a69.334,69.334,0,0,1,21.189,5.89,140.416,140.416,0,0,1,23.027,13.183,264.228,264.228,0,0,1,24.357,19.3c8.011,7.083,16.482,15.242,25.18,24.251,29.519,30.578,62.767,71.979,98.819,123.051a348.649,348.649,0,0,1-53.073,50.27,346.59,346.59,0,0,1-62.785,38.214,344.124,344.124,0,0,1-70.633,24.295,346.284,346.284,0,0,1-37.677,6.346A351.394,351.394,0,0,1-2516.563-10948.464Zm288.044-154.24c-17.416-50-31.158-93.229-40.843-128.5-5.73-20.868-10.089-39.159-12.956-54.362-3.148-16.7-4.573-30.079-4.237-39.781.313-9.009,2.391-19.655,6.177-31.643a294.382,294.382,0,0,1,14.845-36.831c10.96-23.1,26.212-49.777,45.332-79.3a344.252,344.252,0,0,1,36.633,84.374,346.645,346.645,0,0,1,13,94.29,344.425,344.425,0,0,1-57.955,191.76Zm-591.09-24.656h0a344.163,344.163,0,0,1-31.742-79.4,347.169,347.169,0,0,1-11.212-87.7,346.454,346.454,0,0,1,13.735-96.836,344.317,344.317,0,0,1,38.62-86.245,347.671,347.671,0,0,1,59.624-71.771,346.826,346.826,0,0,1,76.75-53.421c17.118,16.43,32.632,32.581,46.112,48.006,15.813,18.095,29.083,35.487,39.443,51.7a253.153,253.153,0,0,1,14.653,25.981,162.264,162.264,0,0,1,9.9,25.405,102.535,102.535,0,0,1,4.128,24.329,70.92,70.92,0,0,1-2.675,22.754c-1.871,6.354-5.43,13.935-10.579,22.532a295.227,295.227,0,0,1-19.352,27.865c-14.73,19.1-34.854,41.972-59.812,67.982-42.052,43.823-98.439,97.261-167.6,158.826Zm430.455-356.351h0a70.932,70.932,0,0,1-8.288-.457,105.245,105.245,0,0,1-19.3-4.669c-7.29-2.368-15.835-5.627-25.4-9.687-17.537-7.444-39.109-17.838-64.115-30.892-40.336-21.055-89.688-49.024-146.686-83.132a344.336,344.336,0,0,1,65.725-20.7,346.891,346.891,0,0,1,34.8-5.386,351.405,351.405,0,0,1,35.855-1.836,351.194,351.194,0,0,1,37.993,2.063,346.4,346.4,0,0,1,36.8,6.042,344.163,344.163,0,0,1,69.141,23.16,346.384,346.384,0,0,1,61.763,36.488,348.677,348.677,0,0,1,52.656,48.087c-26.486,12.232-50.338,21.874-70.893,28.66a305.073,305.073,0,0,1-32.367,8.937A137.509,137.509,0,0,1-2389.154-11483.711Z" transform="translate(2985.563 11705.463)" fill="#ff0062"/>
  </g>
</svg>
